<?xml version="1.0" standalone="no"?><!DOCTYPE svg PUBLIC "-//W3C//DTD SVG 1.1//EN" "http://www.w3.org/Graphics/SVG/1.1/DTD/svg11.dtd"><svg t="1509529916444" class="icon" style="" viewBox="0 0 1024 1024" version="1.1" xmlns="http://www.w3.org/2000/svg" p-id="1005" xmlns:xlink="http://www.w3.org/1999/xlink" width="200" height="200"><defs><style type="text/css"></style></defs><path d="M761.904762 944.859429c-239.055238 137.99619-544.743619 56.100571-682.764191-182.954667C-58.855619 522.849524 23.04 217.161143 262.095238 79.140571c239.055238-137.99619 544.743619-56.100571 682.764191 182.954667 137.99619 239.055238 56.100571 544.743619-182.954667 682.764191z m-36.571429-63.366096c204.068571-117.808762 273.993143-378.758095 156.16-582.826666C763.684571 94.598095 502.735238 24.673524 298.666667 142.506667 94.598095 260.315429 24.673524 521.264762 142.506667 725.333333c117.808762 204.068571 378.758095 273.993143 582.826666 156.16z m-134.095238-232.252952a158.47619 158.47619 0 1 1-158.47619-274.480762 158.47619 158.47619 0 0 1 158.47619 274.480762z m-36.571428-63.341714a85.333333 85.333333 0 1 0-85.333334-147.797334 85.333333 85.333333 0 0 0 85.333334 147.797334z m-377.904762 77.165714l126.707809-73.142857 36.571429 63.366095-126.683429 73.142857-36.571428-63.366095z m506.758095-292.571429l126.70781-73.142857 36.571428 63.366095-126.707809 73.142858-36.571429-63.366096z" p-id="1006" fill="#d4237a"></path></svg>