<?xml version="1.0" encoding="utf-8"?>
<!-- Generator: Adobe Illustrator 16.0.0, SVG Export Plug-In . SVG Version: 6.00 Build 0)  -->
<!DOCTYPE svg PUBLIC "-//W3C//DTD SVG 1.1//EN" "http://www.w3.org/Graphics/SVG/1.1/DTD/svg11.dtd">
<svg version="1.1" id="Layer_4" xmlns="http://www.w3.org/2000/svg" xmlns:xlink="http://www.w3.org/1999/xlink" x="0px" y="0px"
	 width="100px" height="100px" viewBox="0 0 100 100" enable-background="new 0 0 100 100" xml:space="preserve">
<path d="M70.951,45.219l-30.09-28.094c-0.536-0.502-1.304-0.669-2-0.436c-0.696,0.232-1.209,0.827-1.336,1.551l-7.138,40.543
	c-0.141,0.801,0.216,1.605,0.903,2.039c0.686,0.433,1.568,0.407,2.229-0.063l9.908-7.054l7.801,21.056
	c0.351,1.047,1.484,1.614,2.533,1.264l10.258-3.431c1.048-0.351,1.614-1.485,1.263-2.533L57.48,49.007l12.159-0.326
	c0.81-0.021,1.53-0.531,1.818-1.289C71.745,46.63,71.545,45.772,70.951,45.219z M54.672,45.078
	c-0.635,0.018-1.223,0.331-1.586,0.853c-0.364,0.52-0.459,1.181-0.258,1.782l8.023,21.72l-6.462,2.161l-8.023-21.72
	c-0.202-0.602-0.676-1.073-1.279-1.268c-0.604-0.197-1.263-0.096-1.78,0.272l-8.131,5.788l5.651-32.099L64.65,44.811L54.672,45.078z
	"/>
</svg>
