<?xml version="1.0" standalone="no"?><!DOCTYPE svg PUBLIC "-//W3C//DTD SVG 1.1//EN" "http://www.w3.org/Graphics/SVG/1.1/DTD/svg11.dtd"><svg t="1509530058073" class="icon" style="" viewBox="0 0 1024 1024" version="1.1" xmlns="http://www.w3.org/2000/svg" p-id="4460" xmlns:xlink="http://www.w3.org/1999/xlink" width="200" height="200"><defs><style type="text/css"></style></defs><path d="M512 129.10645c-211.466226 0-382.89355 171.427324-382.89355 382.89355 0 211.466226 171.427324 382.89355 382.89355 382.89355s382.89355-171.428348 382.89355-382.89355C894.89355 300.532751 723.466226 129.10645 512 129.10645zM512 840.194764c-181.257204 0-328.194764-146.93756-328.194764-328.194764s146.93756-328.194764 328.194764-328.194764 328.194764 146.93756 328.194764 328.194764S693.25618 840.194764 512 840.194764z" p-id="4461" fill="#d4237a"></path><path d="M391.712403 334.228177l54.698786 0 0 355.544669-54.698786 0 0-355.544669Z" p-id="4462" fill="#d4237a"></path><path d="M580.322062 334.228177l54.698786 0 0 355.544669-54.698786 0 0-355.544669Z" p-id="4463" fill="#d4237a"></path></svg>