<?xml version="1.0" standalone="no"?><!DOCTYPE svg PUBLIC "-//W3C//DTD SVG 1.1//EN" "http://www.w3.org/Graphics/SVG/1.1/DTD/svg11.dtd"><svg t="1509530110828" class="icon" style="" viewBox="0 0 1024 1024" version="1.1" xmlns="http://www.w3.org/2000/svg" p-id="4807" xmlns:xlink="http://www.w3.org/1999/xlink" width="200" height="200"><defs><style type="text/css"></style></defs><path d="M512 0c-282.781538 0-512 229.218462-512 512s229.218462 512 512 512 512-229.218462 512-512S794.781538 0 512 0zM512 945.230769c-238.867692 0-433.230769-194.363077-433.230769-433.230769s194.363077-433.230769 433.230769-433.230769 433.230769 194.363077 433.230769 433.230769S750.907077 945.230769 512 945.230769z" p-id="4808" fill="#d4237a"></path><path d="M706.914462 482.067692l-255.409231-194.363077-3.032615-2.323692c-6.852923-5.828923-15.438769-9.728-25.127385-9.728-21.740308 0-39.384615 17.644308-39.384615 39.384615l0 393.846154c0 21.740308 17.644308 39.384615 39.384615 39.384615 9.688615 0 18.274462-3.899077 25.127385-9.728l3.032615-2.323692 255.409231-194.363077 3.505231-2.638769c6.852923-7.089231 11.145846-16.659692 11.145846-27.293538s-4.292923-20.204308-11.145846-27.293538L706.914462 482.067692z" p-id="4809" fill="#d4237a"></path></svg>